<?xml version="1.0" standalone="no"?>
<!DOCTYPE svg PUBLIC "-//W3C//DTD SVG 20010904//EN"
 "http://www.w3.org/TR/2001/REC-SVG-20010904/DTD/svg10.dtd">
<svg version="1.0" xmlns="http://www.w3.org/2000/svg"
 width="917.000000pt" height="252.000000pt" viewBox="0 0 917.000000 252.000000"
 preserveAspectRatio="xMidYMid meet">
<metadata>
Created by potrace 1.16, written by Peter Selinger 2001-2019
</metadata>
<g transform="translate(0.000000,252.000000) scale(0.100000,-0.100000)"
fill="#000000" stroke="none">
<path d="M2445 2513 c-16 -3 -45 -16 -64 -30 -27 -21 -37 -24 -50 -15 -61 45
-133 40 -251 -16 -71 -34 -104 -44 -201 -56 -177 -23 -234 -50 -311 -145 -10
-12 -18 -27 -18 -34 0 -26 -13 -26 -56 -1 -24 14 -44 23 -44 19 0 -4 -15 3
-34 14 -54 34 -131 21 -141 -23 -9 -39 -13 -81 -14 -128 -1 -37 -7 -55 -29
-80 -16 -18 -32 -44 -35 -58 -12 -44 -81 -107 -126 -115 -21 -3 -46 -14 -53
-23 -28 -33 -21 -162 8 -162 16 0 19 -27 4 -32 -6 -2 -13 -39 -16 -83 -4 -47
-12 -87 -21 -97 -8 -9 -18 -50 -22 -91 -8 -87 -23 -111 -79 -124 -36 -8 -37
-10 -52 -81 -13 -66 -13 -80 2 -134 15 -58 15 -63 -3 -92 -23 -37 -24 -58 -4
-95 14 -29 58 -51 99 -51 21 0 76 -43 76 -60 0 -20 76 -33 167 -27 l93 5 10
-37 c8 -30 18 -41 52 -58 24 -11 55 -23 70 -27 16 -4 29 -15 33 -29 4 -12 17
-32 28 -45 17 -19 21 -38 24 -119 2 -54 7 -101 13 -107 11 -11 29 -14 137 -22
74 -5 85 -4 113 16 17 12 35 33 40 45 6 17 22 26 59 35 28 6 61 22 73 35 19
20 29 22 77 18 54 -4 57 -3 80 30 22 29 33 35 93 45 38 7 91 12 118 12 38 0
68 9 120 35 38 19 75 35 81 35 6 0 26 7 44 16 27 12 41 13 72 5 80 -23 248 -8
284 25 19 17 82 7 167 -26 89 -34 273 -20 354 28 33 19 82 91 94 137 8 27 9
25 15 -27 15 -132 36 -144 261 -147 168 -2 239 9 276 43 l23 21 17 -22 c25
-32 105 -46 221 -39 114 8 102 8 220 0 112 -8 198 7 223 39 l17 22 26 -25 c14
-13 35 -26 48 -29 17 -3 224 -6 478 -6 1 0 18 -145 25 -220 4 -33 11 -65 16
-72 7 -9 48 -12 136 -11 104 0 138 -3 188 -20 91 -31 234 -38 377 -17 l118 17
22 -29 c29 -37 63 -69 109 -103 21 -15 34 -30 31 -34 -3 -3 0 -6 7 -6 7 0 35
-14 62 -31 67 -43 160 -52 214 -20 l37 22 29 -21 c56 -41 139 -37 248 12 33
15 78 23 170 29 218 13 309 46 360 129 28 45 37 48 67 20 12 -10 33 -22 46
-25 14 -4 28 -13 31 -20 6 -17 67 -29 102 -21 30 8 50 49 60 127 7 56 21 85
61 129 13 14 23 35 23 47 0 16 13 31 40 48 22 14 40 30 40 35 0 6 21 10 46 10
62 0 77 18 82 95 3 48 0 65 -13 78 -16 16 -16 20 -1 42 9 13 19 50 22 82 4 33
14 67 24 78 30 34 40 62 40 110 0 57 32 95 91 110 38 9 43 15 56 55 10 31 13
74 9 137 -4 79 -2 94 14 108 23 21 31 60 19 95 -11 29 -64 60 -105 60 -15 0
-27 7 -32 19 -4 11 -11 19 -17 18 -5 -1 -16 10 -23 25 -16 35 -71 51 -169 50
-53 -1 -74 3 -84 15 -10 11 -14 64 -16 191 -4 208 -12 234 -83 270 -44 22 -50
23 -275 18 -265 -6 -224 -6 -480 0 -126 4 -224 1 -265 -6 -41 -7 -250 -12
-562 -13 l-496 -2 -32 -24 -32 -23 -42 23 c-39 23 -50 24 -221 24 -158 0 -184
-2 -209 -18 -27 -18 -29 -18 -64 -1 -29 14 -69 19 -186 22 -152 4 -213 -4
-247 -34 -15 -13 -24 -12 -80 8 -62 22 -75 23 -485 26 l-422 3 -11 27 c-6 15
-12 44 -14 64 -8 74 -49 88 -189 65 -53 -9 -98 -12 -107 -7 -9 4 -56 13 -106
19 -106 13 -216 3 -348 -31 l-88 -22 -30 32 c-35 37 -154 116 -224 148 -55 25
-105 34 -150 27z m-273 -394 c18 -17 27 -28 20 -24 -7 4 -19 2 -26 -4 -10 -8
-22 -8 -40 -1 -37 14 -391 13 -417 -1 -15 -7 -24 -7 -34 1 -8 7 -19 9 -24 5
-6 -3 -9 0 -6 7 3 8 18 21 33 31 23 14 58 17 244 17 l218 0 32 -31z m5076 15
c12 -8 22 -20 22 -26 0 -6 -3 -8 -7 -5 -3 4 -11 -1 -18 -9 -9 -14 -16 -14 -33
-5 -16 8 -76 10 -210 6 -103 -3 -331 -8 -507 -13 -256 -6 -324 -10 -342 -22
-20 -13 -27 -13 -55 0 -47 20 -302 26 -331 7 -19 -12 -24 -11 -39 4 -16 17
-16 19 9 39 23 18 40 20 187 20 123 0 167 -3 181 -14 17 -12 22 -12 39 0 17
11 81 14 331 14 183 0 316 4 325 10 8 5 105 10 220 10 170 0 209 -3 228 -16z
m532 1 c35 -18 36 -19 12 -43 -16 -16 -22 -17 -37 -5 -24 17 -365 19 -396 2
-16 -8 -25 -7 -41 7 -20 18 -20 19 2 36 20 16 46 18 227 18 163 0 210 -3 233
-15z m-3160 -37 c30 -15 71 -40 90 -57 l35 -29 -27 -7 c-20 -5 -46 3 -104 32
l-78 38 -1068 3 c-741 2 -1075 -1 -1088 -8 -15 -8 -25 -7 -41 3 -20 15 -20 15
7 36 l27 21 1096 -2 1096 -3 55 -27z m481 13 c24 -20 24 -20 4 -35 -11 -9 -27
-12 -35 -8 -26 12 -268 14 -290 2 -15 -8 -25 -8 -41 3 -20 15 -20 15 7 36 25
19 39 21 179 21 136 0 155 -2 176 -19z m483 -2 c27 -21 27 -21 7 -36 -15 -10
-26 -11 -40 -3 -26 14 -257 13 -283 -1 -17 -9 -23 -8 -30 5 -8 14 -12 15 -25
4 -14 -12 -15 -11 -5 9 21 38 42 42 198 43 139 0 153 -2 178 -21z m1604 -245
l2 -169 98 2 97 1 3 169 2 168 165 0 165 0 0 -507 c0 -285 -4 -508 -9 -508 -5
0 -14 7 -21 15 -18 22 -268 22 -276 0 -17 -43 -24 2 -24 155 l0 170 -100 0
-100 0 0 -170 0 -170 -170 0 -170 0 0 503 c0 277 2 506 4 508 2 2 78 4 168 3
l163 -1 3 -169z m-4926 -336 c92 -276 166 -504 163 -506 -2 -2 -14 3 -27 12
-28 20 -49 21 -22 1 17 -13 2 -14 -141 -15 l-161 0 -19 61 -20 61 -123 1 -123
2 -18 -60 -19 -60 -176 -2 c-97 -1 -176 1 -176 4 0 4 311 952 325 991 3 9 50
12 187 12 l184 0 166 -502z m640 386 c2 -53 1 -98 -1 -100 -3 -2 -14 4 -25 13
-18 16 -36 17 -146 13 l-125 -6 132 -2 c75 -1 134 -6 138 -12 4 -6 -38 -10
-119 -10 l-126 0 0 -30 0 -30 90 0 90 0 0 -90 0 -90 -90 0 -90 0 0 -120 0
-120 -115 0 -115 0 0 340 0 340 249 0 250 0 3 -96z m618 -14 c0 -60 -3 -110
-6 -110 -3 0 -13 8 -22 18 -14 14 -29 16 -92 11 l-75 -5 83 -2 c101 -2 112
-22 12 -22 l-70 0 0 -229 0 -229 -102 -1 c-81 -1 -99 2 -84 10 12 7 44 10 88
6 42 -4 66 -2 63 4 -10 16 -151 11 -165 -6 -7 -8 -16 -15 -21 -15 -5 0 -9 104
-9 230 l0 230 -70 0 c-98 0 -88 18 13 23 l82 3 -83 2 c-66 2 -84 -1 -88 -13
-15 -39 -24 -5 -24 95 l0 110 285 0 285 0 0 -110z m560 13 l0 -98 -135 3 -135
3 0 -25 c0 -26 0 -26 90 -26 l90 0 0 -97 c0 -93 -1 -96 -19 -79 -15 14 -34 16
-102 13 l-84 -3 88 -2 c48 -1 87 -5 87 -9 0 -5 -34 -7 -75 -5 l-75 4 0 -31 0
-31 134 0 135 0 3 -100 3 -100 -252 0 -253 0 0 340 0 340 250 0 250 0 0 -97z
m498 71 c100 -50 157 -141 156 -249 -1 -77 -29 -149 -78 -194 -14 -14 -26 -28
-26 -31 0 -4 30 -46 66 -94 36 -48 64 -89 62 -91 -2 -3 -17 3 -33 12 -31 17
-225 30 -225 16 0 -5 39 -8 88 -8 48 0 96 -3 107 -7 11 -4 -34 -7 -100 -7
l-120 0 -48 65 c-26 35 -52 62 -57 59 -6 -4 -10 -33 -10 -66 l0 -59 -102 0
c-104 0 -133 8 -40 11 29 1 52 6 52 11 0 13 -99 3 -113 -11 -6 -6 -15 -11 -19
-11 -4 0 -8 153 -8 340 l0 340 198 0 c193 0 199 -1 250 -26z m517 -74 c33 -55
63 -100 66 -100 3 0 34 45 68 100 l62 100 112 0 112 0 0 -340 0 -340 -112 0
-112 0 -3 122 -3 121 -60 -96 c-33 -53 -62 -97 -65 -97 -3 0 -30 43 -60 95
-30 52 -58 94 -62 95 -5 0 -8 -54 -8 -120 l0 -120 -110 0 -110 0 0 340 0 340
113 0 112 -1 60 -99z m1060 -232 c59 -183 110 -339 113 -347 4 -11 -4 -9 -29
6 -23 14 -41 18 -54 13 -17 -6 -14 -9 15 -12 19 -3 -12 -5 -70 -4 l-104 1 -9
38 -9 37 -88 0 -88 0 -9 -37 -9 -38 -104 -3 c-58 -1 -100 1 -93 6 6 4 48 7 92
7 44 -1 78 2 75 7 -3 4 -39 7 -82 6 -59 0 -82 -5 -101 -19 -13 -11 -25 -18
-27 -16 -2 2 47 157 108 345 l112 342 126 0 126 0 109 -332z m615 222 c0 -83
-3 -110 -12 -109 -7 1 -46 1 -85 0 l-73 -1 0 -230 0 -230 -115 0 -115 0 0 230
0 230 -72 1 c-40 1 -79 1 -85 0 -10 -1 -13 26 -13 109 l0 110 285 0 285 0 0
-110z m-1660 -679 c175 5 228 3 244 -10 21 -18 1 -34 -25 -20 -29 15 -156 11
-190 -7 -28 -14 -34 -14 -64 0 -38 18 -156 22 -186 6 -13 -8 -19 -7 -19 0 0 6
-4 8 -10 5 -5 -3 -10 -2 -10 3 0 22 49 31 140 27 52 -2 106 -4 120 -4z m-1758
-62 l36 -9 -23 -75 c-12 -41 -19 -75 -14 -75 5 0 9 -5 9 -10 0 -6 -13 -4 -30
5 -16 8 -51 18 -77 22 -36 5 -42 8 -26 14 11 4 38 4 59 -1 21 -5 40 -7 42 -5
6 6 -71 25 -104 25 -26 0 -31 -4 -30 -22 1 -20 9 -24 55 -30 64 -10 102 -31
125 -68 30 -51 15 -154 -28 -189 -13 -11 -14 -16 -4 -22 7 -4 18 -3 25 3 9 7
13 7 13 -1 0 -17 -77 -51 -137 -61 -32 -6 -74 -5 -103 0 -65 12 -128 39 -113
48 6 4 21 40 33 80 12 39 25 72 28 72 4 0 26 -7 49 -15 42 -15 103 -11 103 6
0 5 -20 9 -45 9 -114 0 -180 92 -144 201 35 103 143 139 301 98z m3171 0 c29
-8 37 -14 33 -27 -3 -9 -12 -44 -22 -77 -9 -33 -17 -61 -18 -62 -1 -1 -24 4
-51 12 -53 16 -109 20 -101 6 3 -4 28 -11 56 -14 93 -11 140 -58 140 -142 0
-45 -18 -93 -48 -127 -17 -20 -3 -25 17 -5 11 10 13 9 9 -2 -11 -36 -152 -77
-221 -65 -53 10 -127 35 -127 44 0 5 4 11 10 15 5 3 19 37 32 76 20 62 25 69
43 64 55 -17 86 -22 109 -18 42 8 30 23 -19 23 -24 0 -62 6 -82 14 -21 8 -47
17 -58 19 -19 4 -19 5 1 6 l21 1 -19 40 c-45 91 12 205 115 231 35 9 121 3
180 -12z m-2318 -8 c-18 -46 -93 -280 -100 -309 -8 -39 -17 -35 -21 10 -8 87
-34 121 -103 133 l-41 7 0 86 0 87 136 1 c121 1 134 0 129 -15z m564 -163 c0
-115 -4 -176 -9 -163 -5 11 -31 90 -58 175 l-49 155 41 6 c84 12 76 30 75
-173z m-1989 -57 c0 -226 0 -230 21 -236 17 -6 19 -9 8 -16 -19 -12 -176 -11
-184 1 -3 6 -3 10 2 10 4 0 7 106 5 235 l-3 235 76 0 75 0 0 -229z m1018 72
l3 -153 69 0 70 0 0 -69 c0 -48 4 -72 15 -81 8 -7 12 -16 9 -21 -7 -13 -321
-12 -329 1 -3 6 -1 10 4 10 8 0 11 76 11 235 l0 236 73 -3 72 -3 3 -152z m782
-69 c41 -122 81 -228 87 -236 20 -23 6 -28 -87 -28 -88 0 -107 5 -91 24 5 6 5
21 0 35 l-10 25 -15 -22 c-20 -29 -48 -28 -73 4 l-20 26 -7 -26 c-3 -15 -1
-32 5 -40 6 -7 8 -16 4 -19 -7 -8 -177 -10 -184 -2 -5 4 143 454 156 475 4 7
38 10 83 8 l77 -3 75 -221z m520 143 l55 -77 3 80 3 80 74 0 75 0 0 -230 c0
-201 2 -231 16 -237 13 -5 13 -7 2 -14 -18 -12 -175 -11 -182 0 -4 5 -1 11 6
13 7 3 -9 36 -43 86 l-54 83 -3 -78 c-2 -62 0 -80 13 -89 14 -11 14 -12 -1
-18 -25 -10 -172 -7 -179 3 -3 5 -1 12 5 16 6 4 10 91 10 236 l0 230 73 -3 72
-3 55 -78z m703 72 c47 -13 112 -70 138 -120 23 -46 26 -144 5 -193 -7 -18
-29 -50 -47 -72 -33 -38 -33 -38 -6 -21 42 27 44 13 3 -18 -52 -39 -116 -55
-227 -55 -104 0 -141 7 -117 21 10 6 14 59 15 236 2 125 3 229 3 231 0 7 201
0 233 -9z m-3857 -154 c-3 -8 -2 -15 3 -15 16 0 30 -47 18 -59 -9 -9 -8 -11 4
-6 13 5 15 0 11 -26 -4 -24 -1 -30 9 -27 8 3 13 12 11 20 -1 11 6 16 23 16 14
0 25 -5 25 -10 0 -6 7 -5 15 2 13 11 14 10 9 -4 -8 -22 2 -20 39 6 l32 23 -29
-35 c-16 -19 -35 -39 -42 -43 -8 -5 -12 -13 -8 -19 3 -5 -8 -23 -25 -39 -38
-35 -45 -36 -36 -8 5 15 3 20 -6 17 -8 -3 -15 -14 -17 -26 -2 -12 -8 -22 -13
-22 -5 0 -9 -14 -9 -31 0 -18 -4 -28 -10 -24 -11 7 -40 -18 -40 -34 0 -6 7 -8
15 -5 8 4 15 1 15 -5 0 -6 -4 -11 -9 -11 -5 0 -18 -3 -28 -6 -15 -5 -15 -4 -3
5 16 11 14 13 -22 14 -17 1 -22 -4 -21 -20 3 -29 -42 -70 -60 -55 -11 9 -16 6
-25 -14 -13 -27 -32 -24 -32 4 0 15 2 15 10 2 10 -15 14 -8 11 22 -1 9 3 19 9
23 19 12 11 27 -11 20 -16 -5 -19 -4 -14 5 5 9 4 11 -3 6 -7 -4 -12 -18 -12
-32 0 -14 -4 -22 -10 -19 -19 12 -10 36 30 79 22 24 40 49 40 56 0 7 8 10 19
7 13 -3 23 3 31 19 7 13 18 20 24 17 6 -4 4 1 -3 11 -14 17 -15 17 -28 0 -7
-10 -13 -22 -13 -27 0 -6 -9 -2 -20 8 -13 11 -25 15 -37 10 -16 -7 -16 -9 -2
-12 11 -3 15 -12 11 -29 -2 -14 -10 -23 -16 -21 -6 2 -10 11 -8 20 1 8 -2 18
-8 22 -5 3 -10 1 -10 -4 0 -6 -4 -11 -10 -11 -15 0 -12 17 6 35 9 9 13 19 10
23 -4 3 -11 0 -15 -7 -6 -9 -11 -10 -15 -2 -4 6 -3 11 2 11 5 0 12 9 15 19 4
16 0 19 -22 18 -14 -1 -29 -6 -33 -12 -4 -5 -10 -6 -14 -2 -4 4 -2 13 4 19 17
17 15 24 -8 25 -17 2 -20 -2 -15 -18 5 -16 3 -20 -11 -17 -11 2 -23 -7 -31
-22 -7 -14 -17 -25 -23 -24 -5 1 -16 2 -24 3 -15 1 -16 17 -2 39 7 11 4 12
-12 3 -14 -7 -19 -18 -16 -29 5 -16 5 -16 -6 1 -13 21 -34 23 -26 2 3 -9 0
-15 -10 -15 -8 0 -17 -6 -20 -14 -3 -8 -13 -17 -21 -20 -14 -6 -14 -4 -2 11
12 15 12 16 -3 10 -12 -4 -15 -2 -12 7 3 8 14 12 25 9 13 -4 19 0 19 11 0 9 6
19 13 22 16 6 18 36 3 46 -6 4 -7 10 -3 15 5 4 12 1 17 -7 7 -12 12 -11 31 5
20 18 22 18 16 3 -8 -22 1 -23 25 -1 20 18 25 4 6 -15 -10 -10 -10 -15 2 -22
19 -12 21 -12 40 0 8 5 11 12 7 17 -5 4 -12 1 -17 -7 -15 -24 -22 -5 -9 24 11
24 13 24 26 8 8 -9 12 -12 9 -6 -6 12 23 29 32 19 3 -3 0 -5 -6 -5 -7 0 -12
-5 -12 -11 0 -6 8 -8 19 -4 13 4 23 0 29 -11 5 -10 17 -19 26 -20 13 -2 15 3
10 19 -6 21 -5 21 12 5 14 -14 15 -22 7 -40 -8 -17 -7 -26 3 -36 16 -15 38
-16 29 -1 -4 6 2 13 13 16 11 2 23 15 26 26 5 20 4 21 -8 5 -7 -10 -19 -18
-26 -18 -10 0 -10 3 -1 14 7 8 8 16 4 18 -4 3 -2 3 4 2 7 -2 18 6 24 17 6 11
17 18 24 15 17 -6 60 30 46 38 -6 4 -7 14 -4 23 6 15 7 15 12 0 4 -11 11 -13
20 -8 10 6 11 13 3 27 -8 14 -6 21 11 30 29 16 30 16 23 -1z m4854 -125 c5 0
11 4 14 9 3 5 18 9 33 9 25 0 26 -1 8 -14 -10 -8 -16 -16 -13 -19 10 -10 37 7
43 26 9 29 23 23 33 -13 6 -22 5 -38 -2 -47 -9 -12 -8 -12 10 -3 24 13 34 7
34 -20 0 -12 -6 -18 -17 -16 -13 2 -18 -4 -18 -25 -1 -16 -7 -32 -14 -37 -8
-4 -11 -15 -8 -23 3 -8 2 -18 -3 -23 -4 -5 -13 -26 -20 -46 -6 -21 -17 -38
-23 -38 -8 0 -7 4 1 12 15 15 16 38 2 38 -5 0 -10 -6 -10 -14 0 -7 -11 -21
-25 -30 -14 -9 -24 -20 -23 -24 2 -4 -10 -19 -25 -34 -27 -27 -35 -48 -18 -48
5 0 13 9 16 20 3 11 10 20 15 20 5 0 17 14 26 31 12 24 19 28 27 20 9 -9 8
-14 -3 -21 -8 -5 -11 -12 -8 -15 10 -11 57 28 64 52 5 20 7 20 23 5 10 -10 15
-21 11 -27 -4 -5 -6 -24 -5 -42 2 -20 -3 -34 -12 -37 -8 -3 -11 -10 -8 -16 3
-5 1 -10 -4 -10 -6 0 -11 9 -11 20 0 11 5 20 11 20 6 0 9 6 6 14 -3 7 0 19 6
26 10 10 6 11 -18 6 -42 -9 -99 -76 -65 -76 5 0 7 -7 3 -16 -5 -14 -8 -12 -19
7 -13 24 -13 23 -14 -10 0 -31 -1 -33 -13 -17 -7 10 -19 15 -29 11 -13 -5 -15
-16 -11 -56 3 -34 1 -49 -7 -49 -8 0 -10 9 -6 25 4 14 2 25 -3 25 -6 0 -8 7
-5 15 4 8 1 22 -6 30 -7 9 -8 15 -2 15 5 0 13 7 16 16 10 27 -17 10 -34 -22
-9 -16 -23 -29 -30 -29 -7 0 -15 -6 -18 -14 -3 -10 2 -11 19 -6 13 4 26 12 27
16 2 5 8 9 13 9 5 0 0 -15 -10 -32 -11 -21 -25 -32 -35 -30 -30 5 -46 -16 -35
-45 5 -14 7 -28 4 -31 -3 -3 -5 0 -5 6 0 7 -5 12 -11 12 -6 0 -9 -6 -6 -14 4
-10 0 -12 -14 -9 -11 3 -18 11 -15 18 3 8 -2 16 -10 19 -8 3 -13 2 -10 -3 3
-5 -1 -12 -10 -15 -13 -5 -15 -2 -11 15 4 15 2 19 -9 15 -20 -8 -18 -1 9 28
18 19 26 23 35 14 9 -9 12 -9 12 0 0 7 -7 15 -16 19 -21 8 -67 -45 -61 -69 3
-11 1 -15 -6 -11 -6 4 -8 0 -4 -10 3 -9 0 -18 -9 -21 -10 -4 -12 -2 -8 6 5 8
2 9 -9 5 -21 -8 -22 2 -2 17 9 6 17 22 18 35 1 12 10 27 19 32 10 6 16 14 13
20 -9 14 -35 11 -35 -5 0 -8 -8 -17 -17 -22 -29 -12 -73 -15 -73 -3 0 5 5 7
10 4 6 -4 18 -1 27 7 12 9 15 9 9 1 -4 -7 -3 -13 3 -13 13 0 25 40 14 51 -9 9
-53 1 -53 -11 0 -6 -19 -7 -55 -1 -12 2 42 51 56 51 5 0 9 -5 9 -12 0 -6 10 0
22 13 14 17 19 19 15 7 -4 -12 -1 -18 8 -18 9 0 12 -6 8 -16 -4 -12 -2 -15 8
-12 8 3 14 10 14 17 0 6 5 15 11 19 6 4 13 15 17 25 4 10 12 15 17 12 8 -5 8
-11 1 -19 -13 -15 15 -16 39 -1 11 7 10 1 -4 -20 -18 -27 -18 -29 0 -42 10 -7
23 -13 28 -13 7 0 8 3 1 8 -12 9 -16 44 -4 36 5 -2 11 6 15 20 3 14 14 28 25
31 15 5 16 11 9 30 -7 18 -5 29 8 42 16 16 16 16 -3 9 -11 -5 -28 -10 -37 -13
-10 -3 -14 -11 -11 -21 5 -12 2 -14 -12 -8 -11 4 -21 2 -26 -5 -4 -7 -16 -13
-26 -14 -10 0 -24 -5 -31 -9 -7 -4 -16 -5 -20 -2 -10 10 32 47 56 49 12 1 22
7 22 14 0 7 5 13 11 13 5 0 7 5 4 10 -3 6 -2 10 4 10 5 0 11 -5 13 -12 3 -7
10 -8 17 -4 9 6 10 11 2 15 -6 4 -3 11 9 19 17 10 20 10 20 -3 0 -8 7 -15 16
-15 14 0 14 3 3 16 -10 12 -10 17 0 23 9 6 9 10 -2 20 -12 9 -12 17 -3 36 6
14 14 25 19 25 4 0 7 5 7 11 0 6 -7 9 -15 5 -20 -7 -19 1 6 32 l21 27 -21 3
c-12 2 -21 7 -21 12 0 4 8 7 18 6 9 -2 25 6 34 17 16 17 18 18 24 3 3 -9 11
-16 16 -16 6 0 8 6 5 14 -3 8 1 17 10 20 8 4 13 12 10 20 -3 8 -3 17 1 21 4 4
8 0 10 -9 2 -9 7 -16 12 -16z m-670 -30 c-5 -17 -18 -42 -29 -56 -18 -22 -19
-29 -7 -38 34 -28 22 -58 -24 -61 -8 0 -14 -8 -12 -17 1 -9 -3 -20 -9 -24 -14
-8 -29 14 -22 33 3 7 0 13 -6 13 -6 0 -20 -19 -32 -41 -17 -35 -19 -46 -9 -64
10 -18 9 -28 -4 -54 -9 -17 -19 -31 -22 -31 -2 0 0 9 6 19 14 27 14 28 -20 28
-30 0 -39 -10 -20 -22 6 -3 10 -10 10 -16 0 -5 -4 -9 -10 -9 -5 0 -10 6 -10
14 0 8 -6 16 -12 19 -10 3 -8 10 5 24 18 20 17 21 -20 20 -21 0 -41 -5 -45
-11 -13 -20 -19 2 -7 28 7 15 18 25 25 22 7 -3 16 5 20 16 6 20 7 20 16 3 8
-12 7 -20 -3 -26 -7 -4 -10 -11 -6 -15 13 -14 38 19 32 43 -3 14 -1 23 6 23 6
0 19 10 30 23 16 19 20 20 30 7 8 -12 9 -9 4 13 -5 26 -4 27 15 17 26 -14 37
-7 42 27 3 16 8 37 12 48 3 11 -4 0 -15 -25 -14 -27 -24 -39 -27 -31 -5 15 21
73 47 104 14 17 16 17 21 2 5 -15 8 -14 30 4 14 11 26 20 27 21 1 0 -2 -14 -7
-30z m-4 -175 c-4 -10 1 -15 14 -15 13 0 18 -5 14 -15 -4 -8 1 -26 9 -38 11
-17 12 -28 5 -43 -9 -15 -7 -15 11 4 15 15 20 29 16 42 -4 12 -2 20 5 20 7 0
14 -9 17 -20 6 -23 8 -24 35 -9 16 9 19 8 13 -2 -6 -8 -4 -11 7 -7 12 5 14 0
10 -20 -3 -15 -11 -32 -18 -39 -13 -14 -69 -24 -79 -15 -7 7 33 34 43 28 4 -2
8 3 9 13 1 10 -5 18 -12 18 -8 0 -11 -5 -8 -10 3 -6 2 -7 -4 -4 -5 4 -19 -4
-31 -18 -16 -19 -18 -24 -6 -29 8 -3 14 -13 14 -22 0 -13 3 -14 15 -4 12 10
15 10 15 -1 0 -25 -33 -39 -55 -23 -18 14 -18 14 0 14 14 0 16 3 8 11 -15 15
-33 3 -33 -22 0 -11 -4 -18 -9 -15 -11 7 -9 25 4 46 16 25 13 70 -5 67 -9 -1
-14 5 -14 16 2 25 -14 21 -18 -5 -2 -13 -9 -22 -16 -20 -8 1 -11 -2 -7 -8 5
-8 11 -8 20 0 16 13 28 -1 19 -23 -6 -17 -44 -11 -44 6 0 7 -4 7 -12 -1 -15
-15 -52 -16 -43 -2 4 6 11 8 16 5 11 -7 32 43 25 61 -3 7 2 18 9 24 8 7 12 16
9 21 -3 5 -1 9 5 9 6 0 8 8 5 18 -5 13 -4 14 4 4 8 -12 12 -11 23 2 18 20 23
20 15 1z"/>
<path d="M7670 1978 c0 -8 -10 -19 -22 -24 -29 -11 -157 -12 -180 0 -11 5 -18
4 -18 -1 0 -5 12 -14 28 -20 26 -11 26 -11 -15 -12 l-43 -1 2 -40 c1 -33 4
-40 17 -35 21 9 62 14 133 19 31 2 61 7 68 11 6 4 17 1 25 -5 20 -16 26 1 22
62 -3 44 -17 82 -17 46z"/>
<path d="M6891 1897 c-1 -40 3 -66 8 -62 5 3 13 0 17 -6 4 -7 25 -9 63 -4 31
4 71 9 89 11 24 3 31 1 26 -8 -5 -8 -2 -9 10 -5 10 4 24 7 32 7 11 0 14 16 14
66 0 39 -4 63 -10 59 -5 -3 -7 -12 -3 -20 6 -16 -32 -22 -41 -6 -3 5 -14 11
-25 14 -14 3 -18 1 -14 -9 3 -9 0 -13 -8 -10 -47 15 -69 16 -69 3 0 -10 -11
-13 -37 -12 -30 2 -39 7 -44 26 -4 15 -7 -3 -8 -44z"/>
<path d="M4165 1970 c-3 -5 2 -16 11 -25 14 -13 32 -16 100 -12 46 3 86 2 89
-1 11 -12 71 -27 100 -26 17 0 51 4 78 8 33 6 52 5 65 -4 9 -7 5 -1 -11 13
-15 15 -44 31 -65 36 -47 12 -361 21 -367 11z"/>
<path d="M4360 1753 c0 -35 -1 -66 -2 -70 -5 -13 83 -15 113 -3 46 19 56 85
18 117 -8 6 -40 13 -72 15 l-57 3 0 -62z"/>
<path d="M6261 1932 c-19 -3 -21 -6 -10 -13 10 -6 10 -9 2 -9 -7 0 -13 -8 -13
-17 0 -14 9 -18 35 -19 19 0 35 3 35 7 0 10 58 -7 75 -21 8 -6 28 -9 46 -6 18
3 37 2 43 -1 13 -8 52 -14 95 -13 l33 0 -21 -17 c-21 -17 -19 -18 66 -15 l88
3 -3 49 c-3 41 -7 50 -25 53 -22 4 -22 4 1 6 30 1 28 21 -3 21 -13 0 -28 -8
-34 -17 -7 -13 -12 -14 -23 -6 -7 6 -21 7 -33 2 -11 -4 -38 -8 -60 -9 -22 0
-49 -7 -60 -15 -12 -9 -31 -13 -50 -10 -16 3 -46 7 -65 9 -19 3 -46 10 -60 15
-23 10 -22 11 11 6 23 -3 40 -1 47 7 8 10 -1 13 -41 14 -29 0 -63 -1 -76 -4z"/>
</g>
</svg>
